<svg version="1.1" id="Layer_1" xmlns="http://www.w3.org/2000/svg" xmlns:xlink="http://www.w3.org/1999/xlink" x="0px"
     y="0px"
     viewBox="0 0 315 309" style="enable-background:new 0 0 315 309;" xml:space="preserve">
<style type="text/css">
	.st0{fill:#000000;}
	.st1{fill:#ffffff;}
</style>
    <g transform="translate(85.2300033569336,50.625)">
	<g>
		<path class="st0" d="M72.8,144.1l-75.4-43.6V13.1l75.4-43.7l75.4,43.7v87.3L72.8,144.1z M5.9,95.3l66.9,38.5l66.9-38.5V18.3
			L72.8-20.3L5.9,18.3V95.3z"/>
        <path class="st0" d="M120.5,8.9v10.8H41c-1.4,0-2.6,0.5-3.7,1.5c-1,1-1.5,2.2-1.5,3.7l0,0v63.8c0,1.4,0.5,2.6,1.5,3.7
			c1,1,2.2,1.5,3.7,1.5l0,0h79.5v10.8H41c-4.4,0-8.2-1.6-11.3-4.7S25,93.2,25,88.7l0,0V24.9c0-4.4,1.6-8.2,4.7-11.3S36.5,8.9,41,8.9
			l0,0H120.5z"/>
	</g>
        <g transform="translate(0,104)">
		<path class="st0" d="M-34.6,55.8v5.1h-37.7c-0.7,0-1.2,0.2-1.7,0.7c-0.5,0.5-0.7,1.1-0.7,1.7l0,0v30.2c0,0.7,0.2,1.2,0.7,1.7
			c0.5,0.5,1.1,0.7,1.7,0.7l0,0h37.7v5.1h-37.7c-2.1,0-3.9-0.7-5.3-2.2c-1.5-1.5-2.2-3.2-2.2-5.3l0,0V63.4c0-2.1,0.7-3.9,2.2-5.4
			c1.5-1.5,3.2-2.2,5.3-2.2l0,0H-34.6z M-20.7,64.7L-20.7,64.7H1.2c2.1,0,4,0.7,5.5,2.2c1.5,1.5,2.2,3.3,2.2,5.4l0,0v21.3
			c0,2.1-0.7,3.9-2.2,5.4c-1.5,1.5-3.3,2.2-5.5,2.2l0,0h-21.9c-2.1,0-3.9-0.7-5.4-2.2c-1.5-1.5-2.2-3.3-2.2-5.4l0,0V72.3
			c0-2.1,0.7-3.9,2.2-5.4C-24.6,65.4-22.8,64.7-20.7,64.7z M1.2,69.8L1.2,69.8h-21.9c-0.7,0-1.2,0.2-1.7,0.7
			c-0.5,0.5-0.7,1.1-0.7,1.7l0,0v21.3c0,0.7,0.2,1.3,0.7,1.7c0.5,0.5,1.1,0.7,1.7,0.7l0,0H1.2c0.7,0,1.2-0.2,1.7-0.7
			c0.5-0.5,0.7-1.1,0.7-1.7l0,0V72.3c0-0.7-0.2-1.2-0.7-1.7C2.4,70.1,1.9,69.8,1.2,69.8z M22.9,96L22.9,96h29.6v5.2H22.9
			c-2.1,0-3.9-0.7-5.4-2.2c-1.5-1.5-2.2-3.3-2.2-5.4l0,0V72.3c0-2.1,0.7-3.9,2.2-5.4c1.5-1.5,3.3-2.2,5.4-2.2l0,0h29.5v5.2H22.9
			c-0.7,0-1.2,0.2-1.7,0.7c-0.5,0.5-0.7,1.1-0.7,1.7l0,0v21.3c0,0.7,0.2,1.3,0.7,1.7C21.6,95.8,22.2,96,22.9,96z M66.7,64.7
			L66.7,64.7h21.9c2.1,0,3.9,0.7,5.4,2.2c1.5,1.5,2.3,3.3,2.3,5.4l0,0v21.3c0,2.1-0.8,3.9-2.3,5.4c-1.5,1.5-3.3,2.2-5.4,2.2l0,0
			H66.7c-2.1,0-3.9-0.7-5.4-2.2c-1.5-1.5-2.2-3.3-2.2-5.4l0,0V72.3c0-2.1,0.7-3.9,2.2-5.4C62.8,65.4,64.6,64.7,66.7,64.7z
			 M88.6,69.8L88.6,69.8H66.7c-0.7,0-1.3,0.2-1.7,0.7c-0.5,0.5-0.7,1.1-0.7,1.7l0,0v21.3c0,0.7,0.2,1.3,0.7,1.7
			c0.5,0.5,1.1,0.7,1.7,0.7l0,0h21.9c0.7,0,1.2-0.2,1.7-0.7c0.5-0.5,0.7-1.1,0.7-1.7l0,0V72.3c0-0.7-0.2-1.2-0.7-1.7
			C89.8,70.1,89.3,69.8,88.6,69.8z M102.1,64.7h29.5c2.1,0,4,0.7,5.5,2.2c1.5,1.5,2.2,3.3,2.2,5.4l0,0v28.9h-29.6
			c-2.1,0-3.9-0.7-5.4-2.2c-1.5-1.5-2.2-3.3-2.2-5.4l0,0V80.3h32v-8.1c0-0.7-0.2-1.2-0.7-1.7c-0.5-0.5-1.1-0.7-1.7-0.7l0,0h-29.5
			V64.7z M109.7,96h24.4V85.5h-26.8v8.1c0,0.7,0.2,1.3,0.7,1.7C108.4,95.8,109,96,109.7,96L109.7,96z M152.7,96L152.7,96h29.6v5.2
			h-29.6c-2.1,0-3.9-0.7-5.4-2.2c-1.5-1.5-2.2-3.3-2.2-5.4l0,0V72.3c0-2.1,0.7-3.9,2.2-5.4c1.5-1.5,3.3-2.2,5.4-2.2l0,0h29.5v5.2
			h-29.5c-0.7,0-1.3,0.2-1.7,0.7c-0.5,0.5-0.7,1.1-0.7,1.7l0,0v21.3c0,0.7,0.2,1.3,0.7,1.7C151.5,95.8,152.1,96,152.7,96z
			 M193.3,64.7h24.4c2.1,0,3.9,0.7,5.4,2.2c1.5,1.5,2.2,3.3,2.2,5.4l0,0v28.9h-5.2V72.3c0-0.7-0.2-1.2-0.7-1.7
			c-0.5-0.5-1.1-0.7-1.7-0.7l0,0h-21.9c-0.7,0-1.3,0.2-1.8,0.7c-0.5,0.5-0.8,1.1-0.8,1.7l0,0v28.9h-5.2V52.7h5.2V64.7z"/>
	</g>
        <g>
		<rect x="-27.7" y="217.8" class="st0" width="200.9" height="19.4"/>
            <path class="st1" d="M-14.9,233.4l-3.8-11.8h1.6l1.9,6.4c0.2,0.7,0.4,1.4,0.6,2c0.2,0.6,0.4,1.2,0.6,1.9l0,0h0.1
			c0.2-0.7,0.4-1.3,0.6-1.9s0.4-1.3,0.6-2l0,0l1.9-6.4h1.5l-3.7,11.8H-14.9z M-4.8,228.6h3.5l-0.6-1.8c-0.2-0.7-0.4-1.3-0.6-2
			c-0.2-0.7-0.4-1.3-0.6-2l0,0h-0.1c-0.2,0.7-0.4,1.4-0.6,2c-0.2,0.6-0.4,1.3-0.6,2l0,0L-4.8,228.6z M0.3,233.4l-1.1-3.6h-4.3
			l-1.1,3.6h-1.5l4-11.8h1.7l4,11.8H0.3z M5.3,233.4v-11.8h3c1.8,0,3.2,0.5,4.2,1.5c0.9,1,1.4,2.5,1.4,4.3l0,0
			c0,0.9-0.1,1.8-0.4,2.5c-0.2,0.7-0.6,1.4-1.1,1.9c-0.5,0.5-1,0.9-1.7,1.2c-0.7,0.3-1.5,0.4-2.4,0.4l0,0H5.3z M6.8,232.2h1.3
			c1.4,0,2.4-0.4,3.1-1.2c0.7-0.8,1-2,1-3.5l0,0c0-1.5-0.3-2.6-1-3.4c-0.7-0.8-1.7-1.2-3.1-1.2l0,0H6.8V232.2z M19.8,233.4v-4.6
			l-3.5-7.2h1.6l1.5,3.3c0.2,0.4,0.4,0.9,0.6,1.3c0.2,0.4,0.4,0.9,0.6,1.3l0,0h0.1c0.2-0.4,0.4-0.9,0.6-1.3s0.4-0.8,0.6-1.3l0,0
			l1.5-3.3h1.6l-3.5,7.2v4.6H19.8z M28.2,233.4v-11.8H30l2.3,6.3l0.9,2.4h0.1L34,228l2.3-6.3h1.8v11.8h-1.4v-6.5
			c0-0.5,0-1.1,0.1-1.7c0-0.6,0.1-1.2,0.1-1.7l0,0h-0.1l-1,2.6l-2.3,6.2h-0.8l-2.3-6.2l-0.9-2.6h-0.1c0,0.5,0.1,1.1,0.1,1.7
			c0,0.6,0.1,1.2,0.1,1.7l0,0v6.5H28.2z M48.5,233.4v-11.8h3.6c0.6,0,1.2,0.1,1.8,0.2c0.5,0.1,1,0.3,1.4,0.6
			c0.4,0.3,0.7,0.6,0.9,1.1c0.2,0.4,0.3,1,0.3,1.6l0,0c0,0.6-0.1,1.2-0.3,1.6c-0.2,0.5-0.5,0.8-0.9,1.1s-0.8,0.5-1.4,0.7
			c-0.5,0.2-1.1,0.2-1.8,0.2l0,0H50v4.7H48.5z M50,227.5H52c1,0,1.8-0.2,2.3-0.6c0.5-0.4,0.7-1,0.7-1.9l0,0c0-0.9-0.3-1.4-0.8-1.8
			c-0.5-0.3-1.3-0.5-2.3-0.5l0,0H50V227.5z M65.1,233.6L65.1,233.6c-0.7,0-1.4-0.1-2-0.4c-0.6-0.3-1.2-0.7-1.6-1.2
			c-0.4-0.5-0.8-1.2-1-1.9c-0.3-0.8-0.4-1.6-0.4-2.6l0,0c0-0.9,0.1-1.8,0.4-2.6c0.2-0.7,0.6-1.4,1-1.9c0.4-0.5,1-0.9,1.6-1.2
			c0.6-0.3,1.3-0.4,2-0.4l0,0c0.7,0,1.4,0.1,2.1,0.4c0.6,0.3,1.1,0.7,1.6,1.2c0.4,0.5,0.8,1.2,1,1.9c0.2,0.7,0.4,1.6,0.4,2.5l0,0
			c0,0.9-0.1,1.8-0.4,2.6c-0.3,0.8-0.6,1.4-1,1.9c-0.5,0.5-1,1-1.6,1.2C66.5,233.5,65.8,233.6,65.1,233.6z M65.1,232.3L65.1,232.3
			c0.5,0,1-0.1,1.4-0.3c0.4-0.2,0.8-0.6,1.1-1c0.3-0.4,0.5-0.9,0.7-1.5c0.2-0.6,0.3-1.3,0.3-2l0,0c0-0.7-0.1-1.4-0.3-2
			s-0.4-1.1-0.7-1.5c-0.3-0.4-0.7-0.7-1.1-0.9c-0.4-0.2-0.9-0.3-1.4-0.3l0,0c-0.5,0-1,0.1-1.4,0.3c-0.4,0.2-0.8,0.5-1.1,0.9
			c-0.3,0.4-0.6,0.9-0.7,1.5c-0.2,0.6-0.3,1.2-0.3,2l0,0c0,0.7,0.1,1.4,0.3,2c0.2,0.6,0.4,1.1,0.7,1.5c0.3,0.4,0.7,0.7,1.1,1
			C64.1,232.2,64.5,232.3,65.1,232.3z M74.5,233.4v-11.8h1.5v10.5h5.2v1.3H74.5z M85,233.4v-11.8h1.5v11.8H85z M90.7,231.9l0.9-1
			c0.4,0.4,0.9,0.8,1.5,1.1c0.6,0.3,1.2,0.4,1.8,0.4l0,0c0.8,0,1.4-0.2,1.8-0.5c0.4-0.3,0.6-0.8,0.6-1.4l0,0c0-0.3,0-0.6-0.1-0.8
			c-0.1-0.2-0.2-0.4-0.4-0.6c-0.2-0.1-0.4-0.3-0.6-0.4c-0.2-0.1-0.5-0.2-0.8-0.4l0,0l-1.7-0.7c-0.3-0.1-0.6-0.3-0.8-0.4
			c-0.3-0.2-0.5-0.4-0.8-0.6s-0.4-0.5-0.6-0.8c-0.1-0.3-0.2-0.7-0.2-1.2l0,0c0-0.4,0.1-0.9,0.3-1.2c0.2-0.4,0.4-0.7,0.8-1
			c0.3-0.3,0.7-0.5,1.2-0.6c0.4-0.2,0.9-0.2,1.5-0.2l0,0c0.7,0,1.4,0.1,2,0.4c0.6,0.3,1.1,0.6,1.5,1.1l0,0l-0.8,1
			c-0.4-0.3-0.8-0.6-1.2-0.8c-0.4-0.2-0.9-0.3-1.5-0.3l0,0c-0.7,0-1.2,0.1-1.6,0.4c-0.4,0.3-0.6,0.7-0.6,1.3l0,0
			c0,0.3,0.1,0.5,0.2,0.7c0.1,0.2,0.3,0.4,0.5,0.5c0.2,0.1,0.4,0.3,0.6,0.4c0.2,0.1,0.5,0.2,0.7,0.3l0,0l1.7,0.7
			c0.3,0.1,0.7,0.3,1,0.5c0.3,0.2,0.6,0.4,0.8,0.6c0.2,0.3,0.4,0.5,0.5,0.9c0.1,0.3,0.2,0.7,0.2,1.2l0,0c0,0.5-0.1,0.9-0.3,1.3
			c-0.2,0.4-0.5,0.8-0.8,1.1c-0.3,0.3-0.8,0.5-1.3,0.7c-0.5,0.2-1.1,0.3-1.7,0.3l0,0c-0.8,0-1.6-0.2-2.3-0.5S91.2,232.4,90.7,231.9
			L90.7,231.9z M102.9,233.4v-11.8h1.5v4.9h5.5v-4.9h1.5v11.8h-1.5v-5.6h-5.5v5.6H102.9z M115.8,227.5L115.8,227.5
			c0-0.9,0.1-1.8,0.4-2.6c0.3-0.8,0.6-1.4,1.1-1.9s1-0.9,1.7-1.2c0.6-0.3,1.3-0.4,2.1-0.4l0,0c0.7,0,1.3,0.1,1.9,0.4
			c0.5,0.3,1,0.6,1.3,1l0,0l-0.8,1c-0.3-0.3-0.7-0.6-1-0.8c-0.4-0.2-0.8-0.3-1.3-0.3l0,0c-0.6,0-1.1,0.1-1.5,0.3
			c-0.5,0.2-0.8,0.5-1.2,0.9c-0.3,0.4-0.6,0.9-0.8,1.5c-0.2,0.6-0.3,1.2-0.3,2l0,0c0,0.7,0.1,1.4,0.3,2c0.2,0.6,0.4,1.1,0.7,1.5
			c0.3,0.4,0.7,0.7,1.2,1c0.4,0.2,0.9,0.3,1.5,0.3l0,0c0.6,0,1.1-0.1,1.5-0.3c0.4-0.2,0.8-0.6,1.2-1l0,0l0.8,0.9
			c-0.5,0.5-1,1-1.6,1.3c-0.6,0.3-1.3,0.4-2,0.4l0,0c-0.7,0-1.4-0.1-2.1-0.4c-0.6-0.3-1.2-0.7-1.7-1.2c-0.5-0.5-0.8-1.2-1.1-1.9
			C115.9,229.4,115.8,228.5,115.8,227.5z M128.6,233.4v-11.8h1.5v4.9h5.5v-4.9h1.5v11.8h-1.5v-5.6h-5.5v5.6H128.6z M142,228.6v-6.9
			h1.5v7c0,0.7,0.1,1.3,0.2,1.8c0.1,0.5,0.3,0.9,0.6,1.2c0.3,0.3,0.5,0.5,0.9,0.6c0.3,0.1,0.7,0.2,1.1,0.2l0,0
			c0.4,0,0.8-0.1,1.1-0.2c0.3-0.1,0.6-0.3,0.9-0.6c0.3-0.3,0.4-0.7,0.6-1.2c0.1-0.5,0.2-1.1,0.2-1.8l0,0v-7h1.4v6.9
			c0,0.9-0.1,1.7-0.3,2.4c-0.2,0.6-0.5,1.2-0.9,1.6c-0.4,0.4-0.8,0.7-1.3,0.9c-0.5,0.2-1.1,0.3-1.7,0.3l0,0c-0.6,0-1.2-0.1-1.7-0.3
			c-0.5-0.2-1-0.5-1.3-0.9c-0.4-0.4-0.7-0.9-0.9-1.6C142.2,230.3,142,229.5,142,228.6L142,228.6z M155.5,233.4v-11.8h1.5v5.9h0.1
			l4.9-5.9h1.7l-3.7,4.5l4.3,7.3h-1.7l-3.5-6.1l-2,2.4v3.7H155.5z"/>
	</g>
</g>
</svg>
